<?xml version="1.0" encoding="utf-8"?>
<!-- Generator: Adobe Illustrator 23.0.0, SVG Export Plug-In . SVG Version: 6.00 Build 0)  -->
<svg version="1.1" id="Capa_1" xmlns="http://www.w3.org/2000/svg" xmlns:xlink="http://www.w3.org/1999/xlink" x="0px" y="0px"
	 viewBox="0 0 496 496" style="enable-background:new 0 0 496 496;" xml:space="preserve">
<style type="text/css">
	.st0{fill:#ECECEC;}
	.st1{fill:#FEA82F;}
	.st2{fill:#B6C1CE;}
	.st3{fill:#FF8031;}
	.st4{fill:#92E0C0;}
	.st5{fill:#48C397;}
	.st6{fill:#F9E0A6;}
	.st7{fill:#FFFFFF;}
	.st8{fill:none;stroke:#FFFFFF;stroke-width:5;stroke-miterlimit:10;}
</style>
<path class="st0" d="M416,1070.1H112v-408c0-17.7-14.3-32-32-32h-8h312c17.7,0,32,14.3,32,32V1070.1z"/>
<g>
	<path class="st1" d="M112,1070.1h336c17.7,0,32-14.3,32-32v-32H176v32c0,17.7-14.3,32-32,32H112z"/>
	<path class="st1" d="M112,726.1H48v-64c0-17.7,14.3-32,32-32l0,0c17.7,0,32,14.3,32,32V726.1z"/>
</g>
<path class="st2" d="M416,777.8c-32.5,10.2-56,40.5-56,76.3c0,35.8,23.5,66.1,56,76.3V777.8z"/>
<circle class="st1" cx="448" cy="830.1" r="80"/>
<path class="st3" d="M448,894.1c-41.5,0-75.6-31.6-79.6-72c-0.3,2.6-0.4,5.3-0.4,8c0,44.2,35.8,80,80,80s80-35.8,80-80
	c0-2.7-0.1-5.4-0.4-8C523.6,862.5,489.5,894.1,448,894.1z"/>
<g>
	<rect x="48" y="1046.1" class="st4" width="96" height="64"/>
	<rect x="152" y="662.1" class="st4" width="224" height="88"/>
</g>
<rect x="48" y="702.1" class="st3" width="64" height="24"/>
<rect x="48" y="1086.1" class="st5" width="96" height="24"/>
<path class="st6" d="M80,1046.1l-7.8-62c-0.2-1.3-0.2-2.6-0.2-4v-68c0-1.3,0.1-2.7,0.2-4l6.7-53.3c0.7-5.7,3-11.1,6.5-13.9
	l45.8-58.8c3.1-5.7,7.8-8,12.7-8l0,0c8.9,0,16.1,7.2,16.1,16.1v2.7c0,3.4-1,6.6-3,9.4l-31,43.5c-3.9,5.4-6,11.9-6,18.6v46.2
	c0,5,1.2,9.9,3.4,14.3l12.6,25.2l0,0l35-35c3.2-3.2,7.5-5,12-5l0,0c9.4,0,17,7.6,17,17l0,0c0,4.5-1.8,8.8-5,12l-59,59v48H80z"/>
<path d="M144,758.1h240v-104H144V758.1z M160,670.1h208v72H160V670.1z"/>
<rect x="184" y="870.1" width="160" height="16"/>
<rect x="200" y="806.1" width="48" height="16"/>
<rect x="280" y="806.1" width="48" height="16"/>
<rect x="200" y="838.1" width="48" height="16"/>
<rect x="280" y="838.1" width="48" height="16"/>
<rect x="256" y="934.1" width="128" height="16"/>
<rect x="336" y="966.1" width="48" height="16"/>
<rect x="256" y="966.1" width="48" height="16"/>
<path d="M448,806.1c4.4,0,8,3.6,8,8h16c0-10.4-6.7-19.2-16-22.5v-17.5h-16v17.5c-9.3,3.3-16,12.1-16,22.5c0,13.2,10.8,24,24,24
	c4.4,0,8,3.6,8,8c0,4.4-3.6,8-8,8s-8-3.6-8-8h-16c0,10.4,6.7,19.2,16,22.5v17.5h16v-17.5c9.3-3.3,16-12.1,16-22.5
	c0-13.2-10.8-24-24-24c-4.4,0-8-3.6-8-8C440,809.7,443.6,806.1,448,806.1z"/>
<rect x="488" y="822.1" width="16" height="16"/>
<rect x="392" y="822.1" width="16" height="16"/>
<path d="M521.6,878.3c9.4-14.3,14.4-31,14.4-48.2c0-48.5-39.5-88-88-88c-8.3,0-16.4,1.2-24,3.4v-83.4c0-22.1-17.9-40-40-40H80
	c-22.1,0-40,17.9-40,40v72h64v59.6l-32.4,41.6c-4.5,4-7.6,10.7-8.6,18.5l-6.7,53.3c-0.2,1.6-0.3,3.3-0.3,5v68c0,1.7,0.1,3.3,0.3,5
	l6.6,53H40v80h112v-40h296c22.1,0,40-17.9,40-40v-40h-64v-83.4c7.6,2.2,15.7,3.4,24,3.4c23.6,0,45.7-9.2,62.3-25.9L499,880.9
	c-13.6,13.7-31.7,21.2-51,21.2c-39.7,0-72-32.3-72-72c0-39.7,32.3-72,72-72s72,32.3,72,72c0,14.1-4.1,27.7-11.8,39.5L521.6,878.3z
	 M56,718.1v-56c0-13.2,10.8-24,24-24s24,10.8,24,24v56H56z M72.2,983.1c-0.1-1-0.2-2-0.2-3v-68c0-1,0.1-2,0.2-3l6.7-53.3
	c0.6-4.5,2.2-7.6,3.5-8.6l47.1-60.2l0.7-1.1c1.8-3.3,4-3.8,5.7-3.8c4.5,0,8.1,3.6,8.1,8.1v2.7c0,1.7-0.5,3.3-1.5,4.7l-31,43.5
	c-4.9,6.8-7.5,14.9-7.5,23.2v46.2c0,6.2,1.5,12.4,4.2,17.9l6.8,13.7H112v16h19.3l37.4-37.4c1.7-1.7,4-2.6,6.3-2.6c4.9,0,9,4,9,9
	c0,2.4-0.9,4.6-2.6,6.3L120,994.8v43.3H79.1L72.2,983.1z M136,1102.1H56v-48h80V1102.1z M472,1038.1c0,13.2-10.8,24-24,24H176
	c5-6.7,8-15,8-24v-24h288V1038.1z M360,830.1c0,34.1,19.6,63.7,48,78.3v89.7H168v40c0,10.4-6.7,19.2-16,22.5v-22.5h-16v-36.7
	l56.7-56.7c4.7-4.7,7.3-11,7.3-17.7c0-13.8-11.2-25-25-25c-6.6,0-13,2.7-17.7,7.3l-27.2,27.2l-7.7-15.3c-1.7-3.3-2.5-7-2.5-10.7
	v-46.2c0-5,1.5-9.8,4.5-14l31-43.5c2.9-4.1,4.5-9,4.5-14v-2.7c0-13.3-10.8-24.1-24.1-24.1c-6.2,0-11.7,2.4-15.9,6.8V662.1
	c0-9-3.1-17.3-8.2-24H384c13.2,0,24,10.8,24,24v89.7C379.6,766.4,360,796,360,830.1z"/>
<g>
	<rect x="144" y="248" class="st7" width="160" height="16"/>
	<rect x="160" y="184" class="st7" width="48" height="16"/>
	<rect x="240" y="184" class="st7" width="48" height="16"/>
	<rect x="160" y="216" class="st7" width="48" height="16"/>
	<rect x="240" y="216" class="st7" width="48" height="16"/>
	<rect x="216" y="312" class="st7" width="128" height="16"/>
	<rect x="296" y="344" class="st7" width="48" height="16"/>
	<rect x="216" y="344" class="st7" width="48" height="16"/>
	<path class="st7" d="M408,184c4.4,0,8,3.6,8,8h16c0-10.4-6.7-19.2-16-22.5V152h-16v17.5c-9.3,3.3-16,12.1-16,22.5
		c0,13.2,10.8,24,24,24c4.4,0,8,3.6,8,8s-3.6,8-8,8s-8-3.6-8-8h-16c0,10.4,6.7,19.2,16,22.5V264h16v-17.5c9.3-3.3,16-12.1,16-22.5
		c0-13.2-10.8-24-24-24c-4.4,0-8-3.6-8-8S403.6,184,408,184z"/>
	<rect x="448" y="200" class="st7" width="16" height="16"/>
	<rect x="352" y="200" class="st7" width="16" height="16"/>
	<path class="st8" d="M481.6,256.2c9.4-14.3,14.4-31,14.4-48.2c0-48.5-39.5-88-88-88c-8.3,0-16.4,1.2-24,3.4V40
		c0-22.1-17.9-40-40-40H40C17.9,0,0,17.9,0,40v72h64v59.6l-32.4,41.6c-4.5,4-7.6,10.7-8.6,18.5L16.3,285c-0.2,1.6-0.3,3.3-0.3,5v68
		c0,1.7,0.1,3.3,0.3,5l6.6,53H0v80h112v-40h296c22.1,0,40-17.9,40-40v-40h-64v-83.4c7.6,2.2,15.7,3.4,24,3.4
		c23.6,0,45.7-9.2,62.3-25.9L459,258.8c-13.6,13.7-31.7,21.2-51,21.2c-39.7,0-72-32.3-72-72s32.3-72,72-72s72,32.3,72,72
		c0,14.1-4.1,27.7-11.8,39.5L481.6,256.2z M16,96V40c0-13.2,10.8-24,24-24s24,10.8,24,24v56H16z M32.2,361c-0.1-1-0.2-2-0.2-3v-68
		c0-1,0.1-2,0.2-3l6.7-53.3c0.6-4.5,2.2-7.6,3.5-8.6l47.1-60.2l0.7-1.1c1.8-3.3,4-3.8,5.7-3.8c4.5,0,8.1,3.6,8.1,8.1v2.7
		c0,1.7-0.5,3.3-1.5,4.7l-31,43.5c-4.9,6.8-7.5,14.9-7.5,23.2v46.2c0,6.2,1.5,12.4,4.2,17.9l6.8,13.7H72v16h19.3l37.4-37.4
		c1.7-1.7,4-2.6,6.3-2.6c4.9,0,9,4,9,9c0,2.4-0.9,4.6-2.6,6.3L80,372.7V416H39.1L32.2,361z M96,480H16v-48h80V480z M432,416
		c0,13.2-10.8,24-24,24H136c5-6.7,8-15,8-24v-24h288V416z M320,208c0,34.1,19.6,63.7,48,78.3V376H128v40c0,10.4-6.7,19.2-16,22.5
		V416H96v-36.7l56.7-56.7c4.7-4.7,7.3-11,7.3-17.7c0-13.8-11.2-25-25-25c-6.6,0-13,2.7-17.7,7.3l-27.2,27.2l-7.7-15.3
		c-1.7-3.3-2.5-7-2.5-10.7v-46.2c0-5,1.5-9.8,4.5-14l31-43.5c2.9-4.1,4.5-9,4.5-14v-2.7c0-13.3-10.8-24.1-24.1-24.1
		c-6.2,0-11.7,2.4-15.9,6.8V40c0-9-3.1-17.3-8.2-24H344c13.2,0,24,10.8,24,24v89.7C339.6,144.3,320,173.9,320,208z"/>
	<rect x="112" y="36" class="st7" width="224" height="88"/>
</g>
</svg>
