<!-- Generator: Adobe Illustrator 23.0.0, SVG Export Plug-In  -->
<svg version="1.1" xmlns="http://www.w3.org/2000/svg" xmlns:xlink="http://www.w3.org/1999/xlink" x="0px" y="0px"
	 width="100px" height="100px" viewBox="0 0 383.88 504.88" style="enable-background:new 0 0 383.88 504.88;"
	 xml:space="preserve">
<style type="text/css">
	.st0{fill:none;stroke:#FFFFFF;stroke-width:2;stroke-miterlimit:10;}
	.st1{fill:#FFFFFF;}
</style>
<defs>
</defs>
<polygon class="st0" points="339.17,120.54 258.9,120.54 258.9,38.68 "/>
<polygon class="st0" points="382.88,1 382.88,466.2 368.01,466.2 368.01,8.42 44.71,8.42 44.71,1 "/>
<polygon class="st0" points="339.17,120.54 258.9,120.54 258.9,38.68 "/>
<polygon class="st0" points="368.01,8.42 368.01,473.63 357.42,473.63 357.42,20.93 29.84,20.93 29.84,8.42 "/>
<polygon class="st0" points="357.42,20.93 357.42,486.13 339.17,486.13 339.17,120.54 258.9,38.68 19.25,38.68 19.25,20.93 "/>
<polygon class="st0" points="339.17,120.54 258.9,120.54 258.9,38.68 "/>
<path class="st0" d="M258.94,120.54V38.68H1v465.2h338.17V120.54H258.94z M54.51,145.18h235.78v15.1H54.51V145.18z M54.51,215.36
	H172.8v4.32H54.51V215.36z M54.51,263.61H172.8v4.31H54.51V263.61z M54.51,279.7h182.93v4.31H54.51V279.7z M54.51,295.78h182.93
	v4.31H54.51V295.78z M170.08,364.44H54.51v-4.31h115.57V364.44z M291.08,348.36H54.51v-4.32h236.57V348.36z M291.08,332.28H54.51
	v-4.34h236.57V332.28z M291.08,316.19H54.51v-4.31h236.57V316.19z M291.08,251.86H54.51v-4.31h236.57V251.86z M291.08,235.78H54.51
	v-4.34h236.57V235.78z M291.08,203.61H54.51v-4.31h236.57V203.61z M291.08,187.61H54.51v-4.31h236.57V187.61z"/>
<rect x="54.51" y="360.11" class="st0" width="115.57" height="4.31"/>
<rect x="54.51" y="344.02" class="st1" width="236.57" height="4.32"/>
<rect x="54.51" y="327.94" class="st1" width="236.57" height="4.32"/>
<rect x="54.51" y="311.86" class="st1" width="236.57" height="4.31"/>
<rect x="54.51" y="295.78" class="st1" width="182.93" height="4.31"/>
<rect x="54.51" y="279.7" class="st1" width="182.93" height="4.31"/>
<rect x="54.51" y="263.61" class="st1" width="118.29" height="4.31"/>
<rect x="54.51" y="247.53" class="st1" width="236.57" height="4.31"/>
<rect x="54.51" y="231.44" class="st1" width="236.57" height="4.32"/>
<polygon class="st0" points="339.17,120.54 258.9,120.54 258.9,38.68 "/>
<polygon class="st1" points="339.17,120.54 258.9,120.54 258.9,38.68 "/>
<rect x="54.51" y="145.18" class="st1" width="235.78" height="15.1"/>
<rect x="54.51" y="183.33" class="st1" width="236.57" height="4.31"/>
<rect x="54.51" y="199.28" class="st1" width="236.57" height="4.31"/>
<rect x="54.51" y="215.36" class="st1" width="118.29" height="4.32"/>
</svg>
