<svg id="Capa_1" data-name="Capa 1" xmlns="http://www.w3.org/2000/svg" viewBox="0 0 512 512"><title>bill</title><rect x="102.06" y="10.28" width="365.78" height="493.23" rx="7.76" fill="#ff7888"/><polygon points="449.94 483.86 119.96 483.86 119.96 29.92 379.92 29.92 449.94 29.92 449.94 106.57 449.94 483.86" fill="#c9c8c8"/><path d="M348.36,10.28c0,5.67-3.47,10.27-7.75,10.27H230.87c-4.28,0-7.75-4.6-7.75-10.27h0C223.12,4.6,226.59,0,230.87,0H340.61c4.28,0,7.75,4.6,7.75,10.28Z" fill="#f34a57"/><polygon points="374.13 137.94 374.13 512 44.16 512 44.16 58.06 295.81 58.06 374.13 137.94" fill="#fadb64"/><polygon points="374.13 137.94 295.81 137.94 295.81 58.06 374.13 137.94" fill="#efefef"/><rect x="112.05" y="154.62" width="230.07" height="14.73" fill="#fff"/><rect x="96.37" y="199.21" width="230.84" height="4.21" fill="#fff"/><rect x="96.37" y="214.78" width="230.84" height="4.21" fill="#fff"/><rect x="96.37" y="230.47" width="115.42" height="4.21" fill="#fff"/><rect x="96.37" y="246.16" width="230.84" height="4.21" fill="#fff"/><rect x="96.37" y="261.86" width="230.84" height="4.21" fill="#fff"/><rect x="96.37" y="277.55" width="115.42" height="4.21" fill="#fff"/><rect x="96.37" y="293.24" width="178.5" height="4.21" fill="#fff"/><rect x="96.37" y="308.94" width="178.5" height="4.21" fill="#fff"/><rect x="96.37" y="324.63" width="230.84" height="4.21" fill="#fff"/><rect x="96.37" y="340.32" width="230.84" height="4.21" fill="#fff"/><rect x="96.37" y="356.02" width="230.84" height="4.21" fill="#fff"/><rect x="96.37" y="371.71" width="112.77" height="4.21" fill="#fff"/><rect x="96.37" y="387.4" width="230.84" height="4.21" fill="#fff"/></svg>