<svg id="Capa_1" data-name="Capa 1" xmlns="http://www.w3.org/2000/svg" viewBox="0 0 512 512"><title>bill</title><polygon points="446.94 474.32 108.77 474.32 108.77 9.12 375.18 9.12 446.94 9.12 446.94 87.67 446.94 474.32" fill="#f7c948"/><polygon points="432.07 481.75 93.9 481.75 93.9 16.55 360.31 16.55 432.07 16.55 432.07 95.1 432.07 481.75" fill="#fbab20"/><polygon points="421.48 494.25 83.31 494.25 83.31 29.05 349.72 29.05 421.48 29.05 421.48 107.6 421.48 494.25" fill="#f4bd34"/><polygon points="403.23 128.66 403.23 512 65.06 512 65.06 46.8 322.96 46.8 403.23 128.66" fill="#fadb64"/><polygon points="403.23 128.66 322.96 128.66 322.96 46.8 403.23 128.66" fill="#efefef"/><rect x="118.57" y="153.3" width="235.78" height="15.1" fill="#fff"/><rect x="118.57" y="191.45" width="236.57" height="4.31" fill="#fff"/><rect x="118.57" y="207.4" width="236.57" height="4.31" fill="#fff"/><rect x="118.57" y="223.48" width="118.29" height="4.31" fill="#fff"/><rect x="118.57" y="239.56" width="236.57" height="4.31" fill="#f8f9fc"/><rect x="118.57" y="255.65" width="236.57" height="4.32" fill="#f8f9fc"/><rect x="118.57" y="271.73" width="118.29" height="4.31" fill="#f8f9fc"/><rect x="118.57" y="287.82" width="182.93" height="4.31" fill="#f8f9fc"/><rect x="118.57" y="303.9" width="182.93" height="4.31" fill="#f8f9fc"/><rect x="118.57" y="319.98" width="236.57" height="4.31" fill="#f8f9fc"/><rect x="118.57" y="336.06" width="236.57" height="4.31" fill="#f8f9fc"/><rect x="118.57" y="352.14" width="236.57" height="4.32" fill="#f8f9fc"/><rect x="118.57" y="368.23" width="115.57" height="4.31" fill="#f8f9fc"/></svg>