<svg id="Capa_1" data-name="Capa 1" xmlns="http://www.w3.org/2000/svg" viewBox="0 0 512 512"><title>bill-whiteStroke</title><path d="M467.85,18V495.75a7.76,7.76,0,0,1-7.76,7.75h-86V483.86h75.81V29.92H120V58.06h-17.9V18a7.75,7.75,0,0,1,7.76-7.75h113.3c0,5.67,3.47,10.27,7.75,10.27H340.61c4.28,0,7.75-4.6,7.75-10.27H460.09A7.76,7.76,0,0,1,467.85,18Z" fill="none" stroke="#fff" stroke-miterlimit="10"/><polygon points="449.94 29.92 449.94 483.86 374.13 483.86 374.13 137.94 295.81 58.06 119.96 58.06 119.96 29.92 449.94 29.92" fill="none" stroke="#fff" stroke-miterlimit="10"/><path d="M348.36,10.28c0,5.67-3.47,10.27-7.75,10.27H230.87c-4.28,0-7.75-4.6-7.75-10.27A12.15,12.15,0,0,1,225.39,3a6.93,6.93,0,0,1,5.48-3H340.61C344.89,0,348.36,4.6,348.36,10.28Z" fill="#fff"/><path d="M295.81,137.94V58.06H44.15V512h330V137.94ZM96.37,230.47H211.79v4.21H96.37Zm0,47.08H211.79v4.21H96.37Zm0,15.69h178.5v4.21H96.37Zm0,15.7h178.5v4.2H96.37Zm0,62.77H209.14v4.21H96.37Zm230.85,19.9H96.37V387.4H327.22Zm0-31.38H96.37V356H327.22Zm0-15.7H96.37v-4.21H327.22Zm0-15.69H96.37v-4.21H327.22Zm0-62.77H96.37v-4.21H327.22Zm0-15.7H96.37v-4.21H327.22Zm0-31.39H96.37v-4.2H327.22Zm0-15.56H96.37v-4.21H327.22Zm14.9-34.07H112.05V154.62H342.12Z" fill="none" stroke="#fff" stroke-miterlimit="10"/><polygon points="374.13 137.94 295.81 137.94 295.81 58.06 374.13 137.94" fill="#fff"/><rect x="112.05" y="154.62" width="230.07" height="14.73" fill="#fff"/><rect x="96.37" y="199.21" width="230.85" height="4.21" fill="#fff"/><rect x="96.37" y="214.78" width="230.85" height="4.2" fill="#fff"/><rect x="96.37" y="230.47" width="115.42" height="4.21" fill="#fff"/><rect x="96.37" y="246.16" width="230.85" height="4.21" fill="#fff"/><rect x="96.37" y="261.86" width="230.85" height="4.21" fill="#fff"/><rect x="96.37" y="277.55" width="115.42" height="4.21" fill="#fff"/><rect x="96.37" y="293.24" width="178.5" height="4.21" fill="#fff"/><rect x="96.37" y="308.94" width="178.5" height="4.2" fill="#fff"/><rect x="96.37" y="324.63" width="230.85" height="4.21" fill="#fff"/><rect x="96.37" y="340.32" width="230.85" height="4.21" fill="#fff"/><rect x="96.37" y="356.02" width="230.85" height="4.21" fill="#fff"/><rect x="96.37" y="371.71" width="112.77" height="4.21" fill="#fff"/><rect x="96.37" y="387.4" width="230.85" height="4.21" fill="#fff"/></svg>