<svg id="Capa_1" data-name="Capa 1" xmlns="http://www.w3.org/2000/svg" viewBox="0 0 512 512"><title>transporte-whiteStroke</title><path d="M272,452v15a45,45,0,0,1-90,0V452Z" fill="none" stroke="#fff" stroke-miterlimit="10" stroke-width="10"/><path d="M482,452v15a45,45,0,0,1-90,0V452Z" fill="none" stroke="#fff" stroke-miterlimit="10" stroke-width="10"/><path d="M417.61,297.61a15,15,0,0,0-21.22-21.22L370.78,302H293.22l4.39-4.39a15,15,0,0,0-21.22-21.22L250.78,302H202l18.12-54.6A30,30,0,0,1,248.6,227H415.4a30,30,0,0,1,28.5,20.4L462,302h-48.8Z" fill="none" stroke="#fff" stroke-miterlimit="10" stroke-width="10"/><path d="M458,242.9A44.48,44.48,0,0,0,415.4,212H248.6A44.48,44.48,0,0,0,206,242.9l-20.16,60.49A45.13,45.13,0,0,1,197,302h5l18.12-54.6A30,30,0,0,1,248.6,227H415.4a30,30,0,0,1,28.5,20.4L462,302h5a45.13,45.13,0,0,1,11.16,1.39Z" fill="none" stroke="#fff" stroke-miterlimit="10" stroke-width="10"/><path d="M297.61,297.61,293.22,302H250.78l25.61-25.61a15,15,0,0,1,21.22,21.22Z" fill="none" stroke="#fff" stroke-miterlimit="10" stroke-width="10"/><path d="M417.61,297.61,413.22,302H370.78l25.61-25.61a15,15,0,0,1,21.22,21.22Z" fill="none" stroke="#fff" stroke-miterlimit="10" stroke-width="10"/><path d="M478.16,303.39A45.13,45.13,0,0,0,467,302H197a44.93,44.93,0,0,0-45,45v90a14.85,14.85,0,0,0,15,15H497a14.85,14.85,0,0,0,15-15V347A44.94,44.94,0,0,0,478.16,303.39ZM257,392H227a15,15,0,0,1,0-30h30a15,15,0,0,1,0,30Zm180,0H407a15,15,0,0,1,0-30h30a15,15,0,0,1,0,30Z" fill="none" stroke="#fff" stroke-miterlimit="10" stroke-width="10"/><path d="M272,377a15,15,0,0,1-15,15H227a15,15,0,0,1,0-30h30A15,15,0,0,1,272,377Z" fill="none" stroke="#fff" stroke-miterlimit="10" stroke-width="10"/><path d="M452,377a15,15,0,0,1-15,15H407a15,15,0,0,1,0-30h30A15,15,0,0,1,452,377Z" fill="none" stroke="#fff" stroke-miterlimit="10" stroke-width="10"/><rect x="60" y="240" width="30" height="182" fill="none" stroke="#fff" stroke-miterlimit="10" stroke-width="10"/><path d="M120,437v45H30V437a14.85,14.85,0,0,1,15-15h60A14.85,14.85,0,0,1,120,437Z" fill="none" stroke="#fff" stroke-miterlimit="10" stroke-width="10"/><path d="M210,75v90a75,75,0,0,1-75,75H45A44.94,44.94,0,0,1,0,195V45A44.94,44.94,0,0,1,45,0h90A75,75,0,0,1,210,75Z" fill="none" stroke="#fff" stroke-miterlimit="10" stroke-width="10"/><path d="M105,60H75A14.85,14.85,0,0,0,60,75v90a15,15,0,0,0,30,0V150h15a45,45,0,0,0,0-90Zm0,60H90V90h15a15,15,0,0,1,0,30Z" fill="none" stroke="#fff" stroke-miterlimit="10" stroke-width="10"/><path d="M272,377a15,15,0,0,1-15,15H227a15,15,0,0,1,0-30h30A15,15,0,0,1,272,377Z" fill="none" stroke="#fff" stroke-miterlimit="10" stroke-width="10"/><path d="M452,377a15,15,0,0,1-15,15H407a15,15,0,0,1,0-30h30A15,15,0,0,1,452,377Z" fill="none" stroke="#fff" stroke-miterlimit="10" stroke-width="10"/><path d="M150,497a14.85,14.85,0,0,1-15,15H15a15,15,0,0,1,0-30H135A14.85,14.85,0,0,1,150,497Z" fill="none" stroke="#fff" stroke-miterlimit="10" stroke-width="10"/></svg>